<svg width="178" height="22" viewBox="0 0 178 22" fill="none" xmlns="http://www.w3.org/2000/svg">
<path d="M177.685 10.1923C177.685 11.5063 177.516 12.6842 177.178 13.726C176.84 14.7678 176.366 15.6923 175.756 16.4995C175.156 17.2972 174.438 17.9777 173.602 18.5408C172.767 19.104 171.852 19.5686 170.857 19.9346C169.862 20.2913 168.802 20.5541 167.675 20.723C166.558 20.8919 165.409 20.9764 164.226 20.9764C163.785 20.9764 163.353 20.967 162.931 20.9483C162.508 20.9201 162.077 20.8826 161.636 20.8356L162.03 2.50543C163.062 2.17693 164.123 1.94698 165.211 1.81559C166.31 1.6748 167.398 1.60441 168.478 1.60441C169.82 1.60441 171.054 1.79212 172.18 2.16755C173.307 2.54297 174.278 3.09673 175.095 3.82881C175.911 4.55151 176.545 5.44784 176.995 6.5178C177.455 7.57838 177.685 8.80321 177.685 10.1923ZM168.112 15.5984C168.675 15.514 169.186 15.345 169.646 15.0916C170.116 14.8288 170.519 14.5097 170.857 14.1343C171.195 13.7495 171.453 13.3177 171.631 12.839C171.819 12.351 171.913 11.8348 171.913 11.2904C171.913 10.7554 171.857 10.258 171.744 9.79809C171.631 9.32881 171.448 8.92522 171.195 8.58734C170.941 8.24007 170.608 7.96789 170.195 7.77079C169.782 7.5643 169.275 7.45167 168.675 7.4329L168.112 15.5984Z" fill="#F15025"/>
<path d="M160.805 9.99519C160.805 10.8117 160.749 11.6283 160.636 12.4448C159.031 12.5481 157.435 12.717 155.849 12.9517C154.263 13.1769 152.677 13.4022 151.091 13.6274C151.335 14.3032 151.715 14.8429 152.231 15.2465C152.757 15.6501 153.381 15.8518 154.104 15.8518C154.479 15.8518 154.887 15.7815 155.328 15.6407C155.779 15.4999 156.225 15.3262 156.666 15.1198C157.107 14.9039 157.529 14.6739 157.933 14.4299C158.337 14.1859 158.684 13.9653 158.975 13.7682L158.299 20.1599C157.933 20.4414 157.534 20.6808 157.102 20.8779C156.68 21.075 156.239 21.2345 155.779 21.3565C155.319 21.4785 154.854 21.5677 154.385 21.624C153.916 21.6803 153.456 21.7085 153.005 21.7085C152.076 21.7085 151.227 21.5818 150.457 21.3284C149.688 21.075 148.988 20.723 148.36 20.2725C147.74 19.8126 147.196 19.2729 146.726 18.6535C146.257 18.034 145.868 17.3582 145.558 16.6262C145.248 15.8941 145.014 15.1198 144.854 14.3032C144.694 13.4867 144.615 12.6607 144.615 11.8254C144.615 10.9525 144.694 10.0797 144.854 9.2068C145.014 8.33393 145.253 7.49391 145.572 6.68675C145.901 5.87958 146.309 5.13342 146.797 4.44827C147.294 3.75373 147.872 3.14835 148.529 2.63214C149.186 2.11593 149.927 1.71235 150.753 1.42139C151.588 1.13044 152.508 0.984959 153.512 0.984959C154.348 0.984959 155.108 1.10228 155.793 1.33692C156.488 1.56218 157.102 1.88129 157.637 2.29426C158.182 2.69784 158.651 3.1812 159.045 3.74434C159.449 4.30748 159.777 4.92694 160.031 5.6027C160.293 6.26909 160.486 6.9777 160.608 7.72856C160.739 8.47002 160.805 9.22557 160.805 9.99519ZM155.174 9.26311C155.174 9.00031 155.145 8.73282 155.089 8.46064C155.033 8.17907 154.939 7.92565 154.808 7.7004C154.685 7.47514 154.521 7.29212 154.315 7.15134C154.108 7.00117 153.85 6.92608 153.54 6.92608C153.165 6.92608 152.832 7.02932 152.541 7.23581C152.259 7.43291 152.015 7.68632 151.809 7.99605C151.602 8.29639 151.433 8.62489 151.302 8.98154C151.171 9.3382 151.072 9.66669 151.006 9.96704L155.174 9.57284V9.26311Z" fill="#F15025"/>
<path d="M145.361 1.63257L140.208 20.6667L133.225 21.0609L126.89 2.67438L133.563 2.05492L136.266 12.7546L138.885 1.21021L145.361 1.63257Z" fill="#F15025"/>
<path d="M129.339 13.909L128.748 20.1599L116.894 21.089L117.345 0.984959H124.665L123.624 13.909H129.339Z" fill="#F15025"/>
<path d="M116.063 9.99519C116.063 10.8117 116.007 11.6283 115.895 12.4448C114.29 12.5481 112.694 12.717 111.108 12.9517C109.522 13.1769 107.935 13.4022 106.349 13.6274C106.593 14.3032 106.973 14.8429 107.49 15.2465C108.015 15.6501 108.639 15.8518 109.362 15.8518C109.738 15.8518 110.146 15.7815 110.587 15.6407C111.037 15.4999 111.483 15.3262 111.924 15.1198C112.366 14.9039 112.788 14.6739 113.191 14.4299C113.595 14.1859 113.942 13.9653 114.233 13.7682L113.557 20.1599C113.191 20.4414 112.793 20.6808 112.361 20.8779C111.938 21.075 111.497 21.2345 111.037 21.3565C110.578 21.4785 110.113 21.5677 109.644 21.624C109.174 21.6803 108.714 21.7085 108.264 21.7085C107.335 21.7085 106.485 21.5818 105.716 21.3284C104.946 21.075 104.247 20.723 103.618 20.2725C102.999 19.8126 102.454 19.2729 101.985 18.6535C101.516 18.034 101.126 17.3582 100.816 16.6262C100.507 15.8941 100.272 15.1198 100.113 14.3032C99.953 13.4867 99.8732 12.6607 99.8732 11.8254C99.8732 10.9525 99.953 10.0797 100.113 9.2068C100.272 8.33393 100.511 7.49391 100.831 6.68675C101.159 5.87958 101.567 5.13342 102.055 4.44827C102.553 3.75373 103.13 3.14835 103.787 2.63214C104.444 2.11593 105.185 1.71235 106.011 1.42139C106.847 1.13044 107.767 0.984959 108.771 0.984959C109.606 0.984959 110.366 1.10228 111.052 1.33692C111.746 1.56218 112.361 1.88129 112.896 2.29426C113.44 2.69784 113.909 3.1812 114.304 3.74434C114.707 4.30748 115.036 4.92694 115.289 5.6027C115.552 6.26909 115.744 6.9777 115.866 7.72856C115.998 8.47002 116.063 9.22557 116.063 9.99519ZM110.432 9.26311C110.432 9.00031 110.404 8.73282 110.348 8.46064C110.291 8.17907 110.197 7.92565 110.066 7.7004C109.944 7.47514 109.78 7.29212 109.573 7.15134C109.367 7.00117 109.109 6.92608 108.799 6.92608C108.424 6.92608 108.09 7.02932 107.799 7.23581C107.518 7.43291 107.274 7.68632 107.067 7.99605C106.861 8.29639 106.692 8.62489 106.56 8.98154C106.429 9.3382 106.331 9.66669 106.265 9.96704L110.432 9.57284V9.26311Z" fill="#F15025"/>
<path d="M99.0144 20.8075L91.9752 21.1454L91.9189 15.2042H88.6808L88.4837 21.3706H82.1766L82.7116 1.57625L89.4129 1.88598L88.9906 11.9943H92.116L92.1441 1.40731L98.5639 1.57625L99.0144 20.8075Z" fill="#F15025"/>
<path d="M81.3882 14.1624C81.3882 15.4483 81.1629 16.5605 80.7124 17.499C80.2713 18.4282 79.6612 19.1978 78.8822 19.8079C78.1126 20.4086 77.2069 20.8544 76.165 21.1454C75.1326 21.4269 74.0204 21.5677 72.8284 21.5677C72.3685 21.5677 71.8617 21.5067 71.308 21.3847C70.7636 21.2627 70.2098 21.1125 69.6467 20.9342C69.0836 20.7465 68.5392 20.5494 68.0136 20.3429C67.4974 20.127 67.0375 19.9252 66.6339 19.7375L67.2534 14.2187C68.0511 14.6974 68.9334 15.0634 69.9001 15.3169C70.8762 15.5609 71.8336 15.6829 72.7721 15.6829C72.9505 15.6829 73.1663 15.6782 73.4197 15.6688C73.6732 15.65 73.9125 15.6078 74.1377 15.5421C74.3724 15.467 74.5695 15.3591 74.729 15.2183C74.8886 15.0775 74.9684 14.8757 74.9684 14.6129C74.9684 14.4346 74.9121 14.2844 74.7994 14.1624C74.6868 14.031 74.5413 13.9278 74.363 13.8527C74.1847 13.7682 73.9829 13.7072 73.7576 13.6697C73.5324 13.6227 73.3118 13.5899 73.0959 13.5711C72.8801 13.5524 72.6783 13.543 72.4906 13.543C72.3028 13.543 72.1527 13.543 72.0401 13.543C71.2329 13.543 70.4961 13.4163 69.8297 13.1628C69.1727 12.9094 68.6049 12.5528 68.1262 12.0929C67.6569 11.6236 67.2909 11.0605 67.0281 10.4035C66.7653 9.73708 66.6339 9.00031 66.6339 8.19314C66.6339 7.08563 66.8545 6.09545 67.2956 5.22258C67.7461 4.34033 68.3421 3.59417 69.0836 2.9841C69.8344 2.36465 70.6932 1.89067 71.6599 1.56217C72.6267 1.23367 73.6262 1.06943 74.6587 1.06943C75.1185 1.06943 75.5925 1.0882 76.0806 1.12574C76.5686 1.1539 77.052 1.21021 77.5307 1.29468C78.0187 1.37915 78.4927 1.48709 78.9526 1.61849C79.4125 1.74989 79.8489 1.91414 80.2619 2.11123L79.7269 7.8271C79.0887 7.61123 78.4176 7.4329 77.7137 7.29212C77.0191 7.14195 76.3387 7.06686 75.6723 7.06686C75.5503 7.06686 75.3907 7.07156 75.1936 7.08094C75.0059 7.08094 74.8041 7.09502 74.5883 7.12318C74.3818 7.14195 74.1706 7.1748 73.9547 7.22173C73.7389 7.26865 73.5464 7.33435 73.3775 7.41882C73.2086 7.49391 73.0725 7.59715 72.9692 7.72855C72.866 7.85995 72.8191 8.01481 72.8284 8.19314C72.8378 8.39963 72.9129 8.55918 73.0537 8.67181C73.2039 8.78444 73.3916 8.86891 73.6168 8.92522C73.8515 8.97215 74.1049 8.99562 74.3771 8.99562C74.6587 8.99562 74.9355 8.99092 75.2077 8.98154C75.4799 8.96277 75.7333 8.94869 75.968 8.9393C76.2026 8.92053 76.395 8.91584 76.5452 8.92522C77.296 8.97215 77.9718 9.13171 78.5725 9.40389C79.1732 9.67608 79.68 10.0374 80.0929 10.4879C80.5153 10.9384 80.8344 11.4781 81.0503 12.107C81.2755 12.7264 81.3882 13.4116 81.3882 14.1624Z" fill="#F15025"/>
<path d="M66.0285 9.99519C66.0285 10.8117 65.9722 11.6283 65.8596 12.4448C64.2546 12.5481 62.6591 12.717 61.0729 12.9517C59.4867 13.1769 57.9005 13.4022 56.3144 13.6274C56.5584 14.3032 56.9385 14.8429 57.4547 15.2465C57.9803 15.6501 58.6045 15.8518 59.3272 15.8518C59.7026 15.8518 60.1109 15.7815 60.552 15.6407C61.0025 15.4999 61.4483 15.3262 61.8894 15.1198C62.3306 14.9039 62.7529 14.6739 63.1565 14.4299C63.5601 14.1859 63.9074 13.9653 64.1983 13.7682L63.5225 20.1599C63.1565 20.4414 62.7576 20.6808 62.3259 20.8779C61.9035 21.075 61.4624 21.2345 61.0025 21.3565C60.5426 21.4785 60.078 21.5677 59.6087 21.624C59.1394 21.6803 58.6795 21.7085 58.229 21.7085C57.2999 21.7085 56.4505 21.5818 55.6808 21.3284C54.9112 21.075 54.212 20.723 53.5831 20.2725C52.9637 19.8126 52.4193 19.2729 51.95 18.6535C51.4807 18.034 51.0912 17.3582 50.7815 16.6262C50.4718 15.8941 50.2371 15.1198 50.0776 14.3032C49.918 13.4867 49.8383 12.6607 49.8383 11.8254C49.8383 10.9525 49.918 10.0797 50.0776 9.2068C50.2371 8.33393 50.4765 7.49391 50.7956 6.68675C51.1241 5.87958 51.5324 5.13342 52.0204 4.44827C52.5179 3.75373 53.0951 3.14835 53.7521 2.63214C54.4091 2.11593 55.1505 1.71235 55.9765 1.42139C56.8118 1.13044 57.7316 0.984959 58.7359 0.984959C59.5712 0.984959 60.3314 1.10228 61.0166 1.33692C61.7111 1.56218 62.3259 1.88129 62.8609 2.29426C63.4052 2.69784 63.8745 3.1812 64.2687 3.74434C64.6723 4.30748 65.0008 4.92694 65.2542 5.6027C65.517 6.26909 65.7094 6.9777 65.8314 7.72856C65.9628 8.47002 66.0285 9.22557 66.0285 9.99519ZM60.3971 9.26311C60.3971 9.00031 60.369 8.73282 60.3127 8.46064C60.2563 8.17907 60.1625 7.92565 60.0311 7.7004C59.9091 7.47514 59.7448 7.29212 59.5383 7.15134C59.3319 7.00117 59.0737 6.92608 58.764 6.92608C58.3886 6.92608 58.0554 7.02932 57.7644 7.23581C57.4829 7.43291 57.2388 7.68632 57.0324 7.99605C56.8259 8.29639 56.6569 8.62489 56.5255 8.98154C56.3941 9.3382 56.2956 9.66669 56.2299 9.96704L60.3971 9.57284V9.26311Z" fill="#F15025"/>
<path d="M49.4722 7.79894C49.4722 8.53103 49.4065 9.19741 49.2751 9.79809C49.1531 10.3894 48.956 10.9338 48.6838 11.4312C48.4117 11.9286 48.0597 12.3885 47.628 12.8109C47.1962 13.2332 46.6753 13.6368 46.0652 14.0216L49.4159 19.9909L43.0806 21.2298L40.9125 15.2324L39.1668 15.2887L38.9134 21.1454H32.8596C32.9065 19.0054 32.9488 16.8749 32.9863 14.7537C33.0333 12.6326 33.0849 10.502 33.1412 8.36208C33.16 7.28273 33.1787 6.21277 33.1975 5.15219C33.2163 4.09161 33.2538 3.02164 33.3101 1.94229C33.9671 1.69827 34.6147 1.49647 35.253 1.33692C35.8912 1.17736 36.5294 1.05535 37.1676 0.970877C37.8152 0.87702 38.4676 0.816014 39.1245 0.787857C39.7909 0.750314 40.4714 0.731543 41.1659 0.731543C42.2359 0.731543 43.2683 0.881713 44.2632 1.18205C45.2675 1.47301 46.1544 1.91414 46.924 2.50543C47.6937 3.09673 48.3084 3.8335 48.7683 4.71576C49.2376 5.59801 49.4722 6.62574 49.4722 7.79894ZM43.1651 8.24946C43.1651 7.85526 43.1088 7.49391 42.9961 7.16541C42.8929 6.83691 42.7333 6.55535 42.5175 6.3207C42.311 6.07668 42.0482 5.88896 41.7291 5.75756C41.4193 5.61678 41.0533 5.54639 40.6309 5.54639C40.4432 5.54639 40.2602 5.56046 40.0819 5.58862C39.9036 5.60739 39.7299 5.64024 39.561 5.68717L39.3357 10.9244H39.6736C40.0772 10.9244 40.4855 10.8727 40.8984 10.7695C41.3208 10.6663 41.6962 10.5067 42.0247 10.2908C42.3626 10.075 42.6348 9.79809 42.8413 9.46021C43.0571 9.12232 43.1651 8.71874 43.1651 8.24946Z" fill="#F15025"/>
<rect width="6.6218" height="20.969" fill="#F7AF31"/>
<rect x="7.72545" width="6.6218" height="20.969" fill="#F7AF31"/>
<rect x="14.4746" y="2.24641" width="7.27893" height="20.0564" transform="rotate(-17.9759 14.4746 2.24641)" fill="#F7AF31"/>
</svg>
