<svg width="340" height="35" viewBox="0 0 340 35" fill="none" xmlns="http://www.w3.org/2000/svg">
<rect width="10.8035" height="34.211" fill="white"/>
<rect x="12.6041" width="10.8035" height="34.211" fill="white"/>
<rect x="23.6153" y="3.66504" width="11.8756" height="32.7221" transform="rotate(-17.9759 23.6153 3.66504)" fill="white"/>
<path d="M308.347 0.655518H323.19C328.341 0.655518 332.461 2.15387 335.458 5.10374C338.502 8.05362 340 12.0804 340 17.231C340 22.7562 338.548 26.9235 335.645 29.7329C332.742 32.5891 328.528 33.9938 323.05 33.9938H308.347V0.655518ZM318.321 9.03691V25.6124H322.348C324.829 25.6124 326.702 24.8632 327.966 23.4585C329.231 22.007 329.839 19.9936 329.839 17.4183C329.839 14.6557 329.137 12.5487 327.639 11.144C326.14 9.73926 324.08 9.03691 321.364 9.03691H318.321Z" fill="white"/>
<path d="M302.864 0.655518V8.75597H285.305V12.9233H301.225V20.6491H285.305V25.5188H303.333V33.9938H275.238V0.655518H302.864Z" fill="white"/>
<path d="M273.158 0.655518L262.903 33.9938H251.385L241.411 0.655518H251.759L253.445 6.60209C255.412 13.6256 256.676 19.3849 257.238 23.7863C257.8 19.5722 259.111 13.8597 261.077 6.64892L262.716 0.655518H273.158Z" fill="white"/>
<path d="M244.685 25.2846V33.9938H219.634V0.655518H229.889V25.2846H244.685Z" fill="white"/>
<path d="M214.339 0.655518V8.75597H196.78V12.9233H212.7V20.6491H196.78V25.5188H214.807V33.9938H186.713V0.655518H214.339Z" fill="white"/>
<path d="M181.244 0.655518V33.9938H171.037V20.8364H161.391V33.9938H151.137V0.655518H161.391V11.8463H171.037V0.655518H181.244Z" fill="white"/>
<path d="M146.08 10.7694L136.482 10.8162C136.435 9.7861 136.06 9.03692 135.311 8.47504C134.562 7.91316 133.532 7.63222 132.221 7.63222C129.973 7.63222 128.849 8.28775 128.849 9.69245C128.849 10.067 129.037 10.3948 129.411 10.7694C129.786 11.0972 130.301 11.3781 130.956 11.6122C131.612 11.8463 132.267 12.0336 132.829 12.2209C133.391 12.3614 134 12.5019 134.702 12.6423C135.405 12.7828 135.826 12.8764 135.966 12.9233C137.278 13.251 138.401 13.5788 139.338 13.9066C140.274 14.1875 141.257 14.6557 142.381 15.2176C143.458 15.7795 144.348 16.435 145.003 17.1374C145.659 17.8397 146.268 18.7294 146.736 19.8063C147.204 20.8833 147.438 22.1007 147.438 23.4585C147.438 26.9235 146.127 29.6392 143.505 31.6995C140.883 33.7597 137.324 34.7898 132.876 34.7898C128.194 34.7898 124.542 33.7129 121.873 31.559C119.157 29.4051 117.799 26.5021 117.752 22.803H128.006C128.147 25.6592 129.879 27.1108 133.204 27.1108C134.468 27.1108 135.498 26.8298 136.247 26.3616C136.997 25.8465 137.371 25.191 137.371 24.3482C137.371 23.7863 137.137 23.3649 136.716 22.9903C136.294 22.6157 135.498 22.2411 134.374 21.8665C133.204 21.4451 131.846 21.0237 130.254 20.5555C128.662 20.0873 127.679 19.8063 127.304 19.6658C125.946 19.1976 124.822 18.7294 123.98 18.308C123.09 17.8397 122.247 17.2778 121.451 16.5755C120.608 15.8731 120 15.0303 119.625 14.0002C119.25 12.9701 119.063 11.7995 119.063 10.4416C119.063 7.30445 120.281 4.77599 122.762 2.85623C125.244 0.936468 128.522 0 132.548 0C136.762 0 140.087 0.936468 142.428 2.80941C144.769 4.68234 145.987 7.35128 146.08 10.7694Z" fill="white"/>
<path d="M114.61 0.655518V8.75597H97.0515V12.9233H112.971V20.6491H97.0515V25.5188H115.078V33.9938H86.9844V0.655518H114.61Z" fill="white"/>
<path d="M52.1847 0.655518L70.1181 0.70234C71.5228 0.70234 72.8807 0.842812 74.1917 1.17057C75.5028 1.45151 76.767 1.96657 77.9844 2.66892C79.2018 3.37128 80.1383 4.40139 80.8875 5.75927C81.6367 7.07033 82.0113 8.66233 82.0113 10.5353C82.0113 12.3146 81.543 13.9534 80.6534 15.4517C79.7637 16.9033 78.5931 17.9802 77.0948 18.6825C78.5931 19.0571 79.7169 20.0404 80.5129 21.6792C81.2621 23.2712 81.7771 25.0505 81.9644 26.9235L82.2922 30.4352C82.4327 32.2145 82.7136 33.3851 83.135 34.0406H73.0212C72.7402 33.4319 72.5061 32.4018 72.4124 30.9035L72.272 29.0305C72.1783 27.9068 72.0379 26.9703 71.8974 26.3148C71.7569 25.6124 71.5228 24.9101 71.1482 24.2545C70.7736 23.5522 70.2117 23.0371 69.4626 22.7094C68.7134 22.4284 67.7301 22.2411 66.6063 22.2411H62.2986V33.9938H52.1847V0.655518ZM62.2986 8.42821V15.2644H67.9174C70.68 15.2644 72.0847 14.0938 72.0847 11.7995C72.0847 9.55197 70.4927 8.42821 67.3555 8.42821H62.2986Z" fill="white"/>
</svg>
