<svg width="215" height="22" viewBox="0 0 215 22" fill="none" xmlns="http://www.w3.org/2000/svg">
<rect width="6.83179" height="21.634" fill="#FF5F57"/>
<rect x="7.97043" width="6.83179" height="21.634" fill="#FF5F57"/>
<rect x="14.9336" y="2.31764" width="7.50976" height="20.6924" transform="rotate(-17.9759 14.9336 2.31764)" fill="#FF5F57"/>
<path d="M194.989 0.414536H204.376C207.633 0.414536 210.238 1.36205 212.133 3.22745C214.058 5.09287 215.005 7.6393 215.005 10.8964C215.005 14.3903 214.088 17.0256 212.252 18.8022C210.416 20.6083 207.751 21.4966 204.287 21.4966H194.989V0.414536ZM201.296 5.71467V16.1965H203.843C205.412 16.1965 206.596 15.7227 207.396 14.8345C208.195 13.9166 208.58 12.6433 208.58 11.0148C208.58 9.26783 208.136 7.93539 207.188 7.0471C206.241 6.15881 204.938 5.71467 203.221 5.71467H201.296Z" fill="#00C8B3"/>
<path d="M191.522 0.414536V5.53701H180.418V8.17227H190.486V13.0579H180.418V16.1373H191.818V21.4966H174.052V0.414536H191.522Z" fill="#00C8B3"/>
<path d="M172.736 0.414536L166.252 21.4966H158.968L152.661 0.414536H159.205L160.271 4.17496C161.514 8.61642 162.314 12.2584 162.669 15.0417C163.024 12.3768 163.854 8.76447 165.097 4.20457L166.134 0.414536H172.736Z" fill="#00C8B3"/>
<path d="M154.731 15.9892V21.4966H138.89V0.414536H145.375V15.9892H154.731Z" fill="#00C8B3"/>
<path d="M135.541 0.414536V5.53701H124.437V8.17227H134.505V13.0579H124.437V16.1373H135.837V21.4966H118.071V0.414536H135.541Z" fill="#00C8B3"/>
<path d="M114.613 0.414536V21.4966H108.158V13.1763H102.059V21.4966H95.5742V0.414536H102.059V7.49125H108.158V0.414536H114.613Z" fill="#00C8B3"/>
<path d="M92.3767 6.81023L86.3067 6.83984C86.2771 6.18843 86.0402 5.71467 85.5664 5.35935C85.0927 5.00404 84.4413 4.82638 83.6122 4.82638C82.1909 4.82638 81.4803 5.24092 81.4803 6.1292C81.4803 6.36608 81.5987 6.57335 81.8356 6.81023C82.0725 7.0175 82.3982 7.19515 82.8127 7.3432C83.2273 7.49125 83.6418 7.60969 83.9971 7.72813C84.3524 7.81696 84.7374 7.90579 85.1815 7.99462C85.6257 8.08345 85.8922 8.14266 85.981 8.17227C86.8101 8.37954 87.5207 8.58681 88.1129 8.79408C88.7051 8.97174 89.3269 9.26783 90.0375 9.62315C90.7185 9.97847 91.2811 10.393 91.6956 10.8371C92.1102 11.2813 92.4951 11.8439 92.7912 12.5249C93.0873 13.2059 93.2354 13.9758 93.2354 14.8345C93.2354 17.0256 92.4063 18.7429 90.7481 20.0458C89.09 21.3486 86.8397 22 84.0267 22C81.0658 22 78.7562 21.319 77.0685 19.9569C75.3511 18.5949 74.4924 16.7591 74.4628 14.4199H80.9473C81.0362 16.2261 82.1317 17.144 84.234 17.144C85.0335 17.144 85.6849 16.9664 86.1586 16.6703C86.6324 16.3445 86.8693 15.93 86.8693 15.397C86.8693 15.0417 86.7212 14.7752 86.4547 14.5384C86.1882 14.3015 85.6849 14.0646 84.9743 13.8277C84.234 13.5612 83.3753 13.2948 82.3686 12.9987C81.3619 12.7026 80.7401 12.5249 80.5032 12.4361C79.6445 12.14 78.9339 11.8439 78.4009 11.5774C77.8383 11.2813 77.3053 10.926 76.802 10.4818C76.269 10.0377 75.8841 9.50471 75.6472 8.8533C75.4103 8.20188 75.2919 7.46164 75.2919 6.60296C75.2919 4.61911 76.0617 3.02019 77.6311 1.80619C79.2004 0.592193 81.273 0 83.8195 0C86.4843 0 88.5866 0.592193 90.0671 1.77658C91.5476 2.96097 92.3175 4.64872 92.3767 6.81023Z" fill="#00C8B3"/>
<path d="M72.476 0.414536V5.53701H61.3723V8.17227H71.4396V13.0579H61.3723V16.1373H72.7721V21.4966H55.0063V0.414536H72.476Z" fill="#00C8B3"/>
<path d="M33 0.414536L44.3405 0.444145C45.2288 0.444145 46.0875 0.532975 46.9166 0.740242C47.7456 0.917899 48.5451 1.24361 49.3149 1.68775C50.0848 2.1319 50.677 2.78331 51.1507 3.64199C51.6245 4.47106 51.8614 5.47779 51.8614 6.66218C51.8614 7.78735 51.5653 8.82369 51.0027 9.7712C50.4401 10.6891 49.6999 11.3701 48.7524 11.8143C49.6999 12.0511 50.4105 12.6729 50.9139 13.7093C51.3876 14.716 51.7133 15.8412 51.8318 17.0256L52.039 19.2463C52.1279 20.3715 52.3055 21.1117 52.572 21.5262H46.1763C45.9987 21.1413 45.8506 20.4899 45.7914 19.5424L45.7026 18.358C45.6433 17.6474 45.5545 17.0552 45.4657 16.6406C45.3768 16.1965 45.2288 15.7524 44.9919 15.3378C44.755 14.8937 44.3997 14.568 43.926 14.3607C43.4522 14.183 42.8304 14.0646 42.1198 14.0646H39.3957V21.4966H33V0.414536ZM39.3957 5.32974V9.65276H42.9489C44.6958 9.65276 45.5841 8.91252 45.5841 7.46164C45.5841 6.04038 44.5774 5.32974 42.5935 5.32974H39.3957Z" fill="#00C8B3"/>
</svg>
