<svg xmlns="http://www.w3.org/2000/svg" viewBox="0 0 960 360"><defs><style>.cls-1{fill:#011e41;}.cls-2{fill:#fff;fill-rule:evenodd;}</style></defs><g id="Layer_2" data-name="Layer 2"><rect class="cls-1" width="960" height="360"/></g><g id="Layer_1" data-name="Layer 1"><g id="OUP_Lock_up_Blue_RGB" data-name="OUP Lock up Blue RGB"><path id="Fill-1" class="cls-2" d="M243,188.57c-.26,1.67-.6,3.32-1,4.93a143.7,143.7,0,0,0,33-29.28,86.53,86.53,0,0,0-3.06-11.72c-6.76,14-17.6,26.55-28.93,36.07"/><path id="Fill-2" class="cls-2" d="M244.38,178.5A138.54,138.54,0,0,0,268,141.33a88.21,88.21,0,0,0-6.2-10.83c-2.82,15.68-9.72,30.62-17.8,42.68.21,1.75.34,3.52.38,5.32"/><path id="Fill-3" class="cls-2" d="M276.9,175.84c-7.28,10.33-22.62,20.76-38.37,28.35-.75,1.49-1.56,2.95-2.43,4.36a147,147,0,0,0,38-18.69,72.7,72.7,0,0,1-4.86,16c-16,7.13-29.28,10.72-40.54,12.1a54.43,54.43,0,0,1-4.1,3.79c10.9.12,23.85-1.52,39.6-6.47A66.76,66.76,0,0,1,252,229.45c-14.38,1.05-26.18.25-36.06-1.71q-2.31,1.26-4.73,2.3a102,102,0,0,0,30.11,7.12,77.07,77.07,0,0,1-13,6.11,156.67,156.67,0,0,1-27-10.11,54.8,54.8,0,0,1-6.07.94,135.33,135.33,0,0,0,22.25,12.22,71,71,0,0,1-13.31,1.49c-.9,0-1.79,0-2.68,0a150.1,150.1,0,0,1-16.46-13.65,55.76,55.76,0,0,1-7.37-1.18,142.58,142.58,0,0,0,13.45,13.75,68.4,68.4,0,0,1-14.94-4.51,124.4,124.4,0,0,1-7.78-12.31,54.07,54.07,0,0,1-6.75-3.53,122.26,122.26,0,0,0,5.73,11.25,67.58,67.58,0,0,1-12.61-10.08A81.52,81.52,0,0,1,150,216.6a54.28,54.28,0,1,1,91.75-52.95c5.32-11.65,9.54-26.15,10.9-44.47a85.84,85.84,0,0,0-9-8.16c2.28,16.89.77,31.34-2.84,43.58a67.55,67.55,0,0,0-5.91-9.88c.74-11.54-.15-25.43-4.41-42.27a85.42,85.42,0,0,0-11.1-4.91c6.76,12.67,10.3,27.81,11.3,41.86a76.11,76.11,0,0,0-8.33-8.22c-3.21-10.9-8.66-23.28-17.45-37.48a87.35,87.35,0,0,0-11.4-1.2,121.46,121.46,0,0,1,21.62,33.22A81.09,81.09,0,0,0,202.85,119a146.1,146.1,0,0,0-23.49-25.9,86,86,0,0,0-11.06,2.1,112.81,112.81,0,0,1,24.15,20,76.43,76.43,0,0,0-14-2.64,149.34,149.34,0,0,0-21.84-13.45A87.53,87.53,0,0,0,146,104.45c7.05.74,14.07,3.7,21.38,7.9a73.18,73.18,0,0,0-12.59,1.81,123.09,123.09,0,0,0-16.93-4.25,87.2,87.2,0,0,0-9.39,8.21,56.56,56.56,0,0,1,14-.26,96.77,96.77,0,0,0-24.75,13.36A87.51,87.51,0,0,0,103,180c0,48.34,38.95,87.53,87,87.53,47.66,0,87-38.82,87-87.53,0-1.39,0-2.76-.1-4.13"/><polyline id="Fill-4" class="cls-2" points="489.75 117.5 477.21 117.5 457 145.97 436.79 117.5 424.25 117.5 449.17 151.33 424 185.5 436.54 185.5 457 156.46 477.46 185.5 490 185.5 464.83 151.33 489.75 117.5"/><path id="Fill-5" class="cls-2" d="M712.21,127.47h18.18c10,0,16.31,4.54,16.31,13.49s-6.23,13.26-15.63,13.26H712.21Zm32.35,33.93c8.24-3.5,13.7-10.51,13.7-20.89,0-14.74-10.42-23-27.53-23H701v68h11.21V164h20.38A75.64,75.64,0,0,1,748.3,185.5H762a95.39,95.39,0,0,0-17.44-24.1Z"/><path id="Fill-6" class="cls-2" d="M820.38,175.53H807.12V127.47h13.26c14.38,0,25.27,8.62,25.27,24S834.76,175.53,820.38,175.53Zm.78-58H796v68h25.16c21.8,0,35.84-13.71,35.84-34s-14-34-35.84-34Z"/><path id="Fill-7" class="cls-2" d="M361,177.26A25.26,25.26,0,1,1,386.46,152,25.52,25.52,0,0,1,361,177.26Zm0-60.76c-19.48,0-36,15.89-36,35.5s16.52,35.5,36,35.5,36-15.89,36-35.5-16.52-35.5-36-35.5Z"/><path id="Fill-8" class="cls-2" d="M632,177.26A25.26,25.26,0,1,1,657.46,152,25.52,25.52,0,0,1,632,177.26Zm0-60.76c-19.48,0-36,15.89-36,35.5s16.52,35.5,36,35.5,36-15.89,36-35.5-16.52-35.5-36-35.5Z"/><path id="Fill-9" class="cls-2" d="M520,185.5h11.27V161h32.89a40.23,40.23,0,0,0,4.8-9.75H531.27V127.47H573v-10H520v68"/><path id="Fill-10" class="cls-2" d="M732.55,229.17h-7.72V217.75h7.72c4.29,0,7.07,1.84,7.07,5.66C739.62,227.52,736.89,229.17,732.55,229.17Zm12-5.95c0-6.28-4.49-9.72-11.82-9.72H720v29h4.83v-9.13h8.6a32.14,32.14,0,0,1,6.65,9.13H746a40.63,40.63,0,0,0-7.37-10.21,9.15,9.15,0,0,0,5.93-9.07Z"/><path id="Fill-11" class="cls-2" d="M352.26,230.84c0,4.58-2.49,8.17-7.71,8.17s-7.81-3.59-7.81-8.17V214.5H332v16.34c0,7.37,4.74,12.66,12.55,12.66S357,238.21,357,230.84V214.5h-4.74v16.34"/><path id="Fill-12" class="cls-2" d="M798.89,221.33c0-2,1.82-3.46,5.47-3.46a16.21,16.21,0,0,1,8.17,2.57l2.46-3.89a19.8,19.8,0,0,0-10.54-3.05c-6.19,0-10.66,2.85-10.66,8.09,0,10.77,17,7,17,13.5,0,2.21-2.33,4-5.58,4a14.18,14.18,0,0,1-9.54-3.81L793,239.06c2.85,2.71,7.73,4.44,12.09,4.44,6.1,0,10.91-3.53,10.91-8.66,0-10.24-17.11-7.14-17.11-13.51"/><path id="Fill-13" class="cls-2" d="M546.89,221.33c0-2,1.82-3.46,5.47-3.46a16.21,16.21,0,0,1,8.17,2.57l2.46-3.89a19.78,19.78,0,0,0-10.54-3.05c-6.19,0-10.66,2.85-10.66,8.09,0,10.77,17,7,17,13.5,0,2.21-2.33,4-5.58,4a14.18,14.18,0,0,1-9.54-3.81L541,239.06c2.85,2.71,7.73,4.44,12.09,4.44,6.1,0,10.91-3.53,10.91-8.66,0-10.24-17.11-7.14-17.11-13.51"/><path id="Fill-14" class="cls-2" d="M832.89,221.33c0-2,1.82-3.46,5.47-3.46a16.21,16.21,0,0,1,8.17,2.57l2.46-3.89a19.8,19.8,0,0,0-10.54-3.05c-6.19,0-10.66,2.85-10.66,8.09,0,10.77,17,7,17,13.5,0,2.21-2.33,4-5.58,4a14.18,14.18,0,0,1-9.54-3.81L827,239.06c2.85,2.71,7.73,4.44,12.09,4.44,6.1,0,10.91-3.53,10.91-8.66,0-10.24-17.11-7.14-17.11-13.51"/><polyline id="Fill-15" class="cls-2" points="391.23 234.32 374.01 213.5 370 213.5 370 242.5 374.77 242.5 374.77 221.39 391.99 242.5 396 242.5 396 213.5 391.23 213.5 391.23 234.32"/><polygon id="Fill-16" class="cls-2" points="411 242.5 416 242.5 416 213.5 411 213.5 411 242.5"/><polygon id="Fill-17" class="cls-2" points="578 242.5 583 242.5 583 213.5 578 213.5 578 242.5"/><polyline id="Fill-18" class="cls-2" points="595 217.75 604.64 217.75 604.64 242.5 609.36 242.5 609.36 217.75 619 217.75 619 213.5 595 213.5 595 217.75"/><path id="Fill-19" class="cls-2" d="M517.55,229.17h-7.72V217.75h7.72c4.29,0,7.08,1.84,7.08,5.66C524.63,227.52,521.89,229.17,517.55,229.17Zm12-5.95c0-6.28-4.5-9.72-11.82-9.72H505v29h4.83v-9.13h8.6a32.14,32.14,0,0,1,6.65,9.13H531a40.63,40.63,0,0,0-7.37-10.21,9.15,9.15,0,0,0,5.93-9.07Z"/><path id="Fill-20" class="cls-2" d="M642.5,227a126.09,126.09,0,0,1-7.91-13.49H629a180.26,180.26,0,0,0,11.09,18.4v10.6h4.82V231.9A180.26,180.26,0,0,0,656,213.5h-5.6A124.53,124.53,0,0,1,642.5,227"/><path id="Fill-21" class="cls-2" d="M442.64,237.07a140.66,140.66,0,0,1-9.36-23.57H428a154,154,0,0,0,12,29h5a154,154,0,0,0,12-29h-5a139,139,0,0,1-9.36,23.57"/><path id="Fill-22" class="cls-2" d="M469,242.5h22v-4.25H473.79V230h13.57a17.26,17.26,0,0,0,1.95-4.06H473.79v-8.18H491V213.5H469v29"/><path id="Fill-23" class="cls-2" d="M759,242.5h22v-4.25H763.79V230h13.57a17.26,17.26,0,0,0,1.95-4.06H763.79v-8.18H781V213.5H759v29"/><path id="Fill-24" class="cls-2" d="M695.45,213.5H683v29h4.72V217.75h7.54c4.2,0,6.92,1.94,6.92,5.75,0,4.11-2.67,5.85-6.92,5.85H691l-1.82,4.21h6c7.06,0,11.83-3.58,11.83-10.25,0-6.28-4.39-9.81-11.55-9.81"/></g></g></svg>